<mxfile host="app.diagrams.net" agent="Mozilla/5.0 (X11; Linux x86_64; rv:132.0) Gecko/20100101 Firefox/132.0" version="26.0.14">
  <diagram name="Page-1" id="-jlSUvyqlViPHI6Ctp3R">
    <mxGraphModel dx="1430" dy="740" grid="1" gridSize="10" guides="1" tooltips="1" connect="1" arrows="1" fold="1" page="1" pageScale="1" pageWidth="850" pageHeight="1100" math="0" shadow="0">
      <root>
        <mxCell id="0" />
        <mxCell id="1" parent="0" />
        <mxCell id="YLKhRgWx13GadXLJ6Uts-1" value="&lt;font style=&quot;font-size: 32px;&quot;&gt;&amp;nbsp;A&lt;/font&gt;" style="shape=umlActor;verticalLabelPosition=bottom;verticalAlign=top;html=1;outlineConnect=0;shadow=1;" parent="1" vertex="1">
          <mxGeometry x="90" y="230" width="80" height="140" as="geometry" />
        </mxCell>
        <mxCell id="YLKhRgWx13GadXLJ6Uts-2" value="&lt;font style=&quot;font-size: 32px;&quot;&gt;B&lt;/font&gt;" style="shape=umlActor;verticalLabelPosition=bottom;verticalAlign=top;html=1;outlineConnect=0;shadow=1;" parent="1" vertex="1">
          <mxGeometry x="610" y="380" width="80" height="140" as="geometry" />
        </mxCell>
        <mxCell id="YLKhRgWx13GadXLJ6Uts-5" value="" style="endArrow=none;dashed=1;html=1;dashPattern=1 3;strokeWidth=4;rounded=0;entryX=0.5;entryY=0.5;entryDx=0;entryDy=0;entryPerimeter=0;exitX=0.5;exitY=0.5;exitDx=0;exitDy=0;exitPerimeter=0;shadow=1;" parent="1" source="YLKhRgWx13GadXLJ6Uts-1" target="YLKhRgWx13GadXLJ6Uts-2" edge="1">
          <mxGeometry width="50" height="50" relative="1" as="geometry">
            <mxPoint x="290" y="420" as="sourcePoint" />
            <mxPoint x="520" y="420" as="targetPoint" />
            <Array as="points">
              <mxPoint x="240" y="340" />
              <mxPoint x="290" y="300" />
              <mxPoint x="380" y="470" />
              <mxPoint x="510" y="360" />
            </Array>
          </mxGeometry>
        </mxCell>
        <mxCell id="YLKhRgWx13GadXLJ6Uts-7" value="&lt;h1 style=&quot;margin-top: 0px;&quot;&gt;a long distance...&lt;/h1&gt;" style="text;html=1;whiteSpace=wrap;overflow=hidden;rounded=0;shadow=1;" parent="1" vertex="1">
          <mxGeometry x="270" y="490" width="230" height="120" as="geometry" />
        </mxCell>
      </root>
    </mxGraphModel>
  </diagram>
</mxfile>
